<?xml version="1.0" encoding="UTF-8"?>
<svg width="44px" height="42px" viewBox="0 0 44 42" version="1.1" xmlns="http://www.w3.org/2000/svg" xmlns:xlink="http://www.w3.org/1999/xlink">
    <title>Group 3</title>
    <defs>
        <polygon id="path-1" points="0 0.326836364 43.2446509 0.326836364 43.2446509 41.2363636 0 41.2363636"></polygon>
    </defs>
    <g id="Symbols" stroke="none" stroke-width="1" fill="none" fill-rule="evenodd">
        <g id="Group-3">
            <mask id="mask-2" fill="white">
                <use xlink:href="#path-1"></use>
            </mask>
            <g id="Clip-2"></g>
            <path d="M43.2446509,11.0639455 C43.2064691,11.4717273 42.9911236,11.8428545 42.6566509,12.0795818 L37.1202873,15.2792182 C36.9370145,15.3678 36.7354145,15.4090364 36.5322873,15.4014 C36.3314509,15.4113273 36.1321418,15.3693273 35.9519236,15.2792182 L30.4079236,12.0795818 C30.0719236,11.8443818 29.8565782,11.4724909 29.8199236,11.0639455 L29.8199236,4.66467273 C29.8588691,4.25841818 30.0703964,3.88881818 30.4002873,3.64903636 L35.9442873,0.4494 C36.1260327,0.363872727 36.3245782,0.321872727 36.5246509,0.327218182 C36.7270145,0.3234 36.9286145,0.3654 37.1126509,0.4494 L42.6490145,3.64903636 C42.9842509,3.88576364 43.1988327,4.25612727 43.2370145,4.66467273 L43.2446509,11.0639455 Z M35.7839236,23.9770364 C35.7457418,24.3832909 35.5342145,24.7528909 35.20356,24.9926727 L29.6671964,28.1923091 C29.2922509,28.3557273 28.8661418,28.3557273 28.4911964,28.1923091 L22.9471964,24.9926727 C22.6150145,24.7544182 22.4034873,24.3840545 22.3668327,23.9770364 L22.3668327,17.5701273 C22.4050145,17.1615818 22.62036,16.7912182 22.9548327,16.5544909 L28.4911964,13.3548545 C28.6744691,13.2685636 28.8768327,13.2265636 29.0791964,13.2326727 C29.2807964,13.2250364 29.4808691,13.2693273 29.65956,13.3624909 L35.20356,16.5544909 C35.5342145,16.7935091 35.7457418,17.1638727 35.7839236,17.5701273 L35.7839236,23.9770364 Z M28.3308327,36.8901273 C28.2926509,37.2979091 28.0780691,37.6690364 27.7428327,37.9057636 L22.2064691,41.1054 C22.0247236,41.1970364 21.82236,41.2420909 21.6184691,41.2352182 C21.4168691,41.2443818 21.2167964,41.1993273 21.0381055,41.1054 L15.4788327,37.9057636 C15.14436,37.6690364 14.9290145,37.2979091 14.8908327,36.8901273 L14.8908327,30.4908545 C14.9313055,30.0838364 15.1458873,29.7127091 15.4788327,29.4752182 L21.0228327,26.2832182 C21.2015236,26.1900545 21.4015964,26.1457636 21.6031964,26.1534 C21.8070873,26.1465273 22.0086873,26.1915818 22.1911964,26.2832182 L27.72756,29.4752182 C28.0627964,29.7111818 28.2773782,30.0830727 28.31556,30.4908545 L28.3308327,36.8901273 Z M14.1653782,28.3144909 C13.9653055,28.3206 13.7659964,28.2786 13.5850145,28.1923091 L8.04101455,24.9926727 C7.70654182,24.7559455 7.49196,24.3855818 7.45301455,23.9770364 L7.45301455,17.5701273 C7.49196,17.1615818 7.70654182,16.7912182 8.04101455,16.5544909 L13.5773782,13.3624909 C13.9507964,13.1899091 14.3807236,13.1899091 14.7533782,13.3624909 L20.2897418,16.5544909 C20.6242145,16.7912182 20.83956,17.1615818 20.8777418,17.5701273 L20.8777418,23.9694 C20.83956,24.3771818 20.6242145,24.7483091 20.2897418,24.9850364 L14.7533782,28.1846727 C14.5701055,28.2732545 14.3692691,28.3167818 14.1653782,28.3144909 L14.1653782,28.3144909 Z M6.71228727,15.4014 C6.50992364,15.4067455 6.30832364,15.3647455 6.12428727,15.2792182 L0.587923636,12.0795818 C0.253450909,11.8428545 0.0381054545,11.4717273 -7.63636364e-05,11.0639455 L-7.63636364e-05,4.66467273 C0.0381054545,4.25612727 0.253450909,3.88576364 0.587923636,3.64903636 L6.12428727,0.4494 C6.50152364,0.296672727 6.92381455,0.296672727 7.30028727,0.4494 L12.8366509,3.64903636 C13.1718873,3.88576364 13.3864691,4.25612727 13.4246509,4.66467273 L13.4246509,11.0639455 C13.3864691,11.4717273 13.1718873,11.8428545 12.8366509,12.0795818 L7.29265091,15.2792182 C7.11166909,15.3655091 6.91236,15.4075091 6.71228727,15.4014 L6.71228727,15.4014 Z" id="Fill-1" fill="#9B2336" mask="url(#mask-2)"></path>
        </g>
    </g>
</svg>